<svg xmlns="http://www.w3.org/2000/svg" width="310" height="310" viewBox="0 0 310 310">
  <g id="backround-decor-2" transform="translate(94 -615)">
    <g id="backround-decor-2-2" data-name="backround-decor-2" transform="translate(-163 131)" opacity="0.45">
      <g id="Ellipse_115" data-name="Ellipse 115" transform="translate(69 484)" fill="rgba(255,185,202,0.34)" stroke="#ffd9dd" stroke-width="2">
        <circle cx="155" cy="155" r="155" stroke="none"/>
        <circle cx="155" cy="155" r="154" fill="none"/>
      </g>
      <g id="Group_288" data-name="Group 288" transform="translate(119.896 -87.522)">
        <g id="Group_287" data-name="Group 287">
          <path id="Path_709" data-name="Path 709" d="M4711.693,716.554c55.5-47.765,94.99-11.947,94.99-11.947l21.594-103.971,46.618,10.877s2.9,16.595,21.577,20.953a30.541,30.541,0,0,0,29.7-8.988s35.157,3.624,84.38,20.6" transform="translate(-4757 52.888)" fill="none" stroke="#ffd9dd" stroke-width="2"/>
          <g id="Group_286" data-name="Group 286" transform="translate(-56.412 164)">
            <path id="Path_708" data-name="Path 708" d="M4770.185,650.949s97.062-42.616,163.541-51.034c68.638-14.971,117.267-15.694,117.267-15.694" transform="translate(-4739 -2)" fill="none" stroke="#ffd9dd" stroke-width="2"/>
          </g>
        </g>
        <g id="Rectangle_343" data-name="Rectangle 343" transform="matrix(0.978, 0.208, -0.208, 0.978, 78.183, 663.232)" fill="none" stroke="#ffd9dd" stroke-width="2">
          <rect width="19" height="19" stroke="none"/>
          <rect x="1" y="1" width="17" height="17" fill="none"/>
        </g>
        <g id="Rectangle_344" data-name="Rectangle 344" transform="matrix(0.978, 0.208, -0.208, 0.978, 100.718, 668.232)" fill="none" stroke="#ffd9dd" stroke-width="2">
          <rect width="10" height="10" stroke="none"/>
          <rect x="1" y="1" width="8" height="8" fill="none"/>
        </g>
        <g id="Ellipse_106" data-name="Ellipse 106" transform="translate(10 756)" fill="none" stroke="#ffd9dd" stroke-width="2">
          <circle cx="7.5" cy="7.5" r="7.5" stroke="none"/>
          <circle cx="7.5" cy="7.5" r="6.5" fill="none"/>
        </g>
        <g id="Ellipse_107" data-name="Ellipse 107" transform="translate(24 769)" fill="none" stroke="#ffd9dd" stroke-width="2">
          <circle cx="5" cy="5" r="5" stroke="none"/>
          <circle cx="5" cy="5" r="4" fill="none"/>
        </g>
        <g id="Ellipse_108" data-name="Ellipse 108" transform="translate(214 693)" fill="none" stroke="#ffd9dd" stroke-width="2">
          <circle cx="7" cy="7" r="7" stroke="none"/>
          <circle cx="7" cy="7" r="6" fill="none"/>
        </g>
        <g id="Ellipse_109" data-name="Ellipse 109" transform="translate(231 697)" fill="none" stroke="#ffd9dd" stroke-width="2">
          <circle cx="7" cy="7" r="7" stroke="none"/>
          <circle cx="7" cy="7" r="6" fill="none"/>
        </g>
        <g id="Path_711" data-name="Path 711" transform="translate(135 662)" fill="none">
          <path d="M8.5,0A8.5,8.5,0,1,1,0,8.5,8.5,8.5,0,0,1,8.5,0Z" stroke="none"/>
          <path d="M 8.5 2 C 4.915889739990234 2 2 4.915889739990234 2 8.5 C 2 12.08411026000977 4.915889739990234 15 8.5 15 C 12.08411026000977 15 15 12.08411026000977 15 8.5 C 15 4.915889739990234 12.08411026000977 2 8.5 2 M 8.5 0 C 13.19441986083984 0 17 3.805580139160156 17 8.5 C 17 13.19441986083984 13.19441986083984 17 8.5 17 C 3.805580139160156 17 0 13.19441986083984 0 8.5 C 0 3.805580139160156 3.805580139160156 0 8.5 0 Z" stroke="none" fill="#ffd9dd"/>
        </g>
        <line id="Line_76" data-name="Line 76" y1="9" x2="9" transform="translate(143.5 661.5)" fill="none" stroke="#ffd9dd" stroke-linecap="round" stroke-width="2"/>
      </g>
    </g>
    <g id="plane-1060" transform="translate(254.837 753.965)">
      <g id="Group_109" data-name="Group 109" transform="translate(-126.036 -66.687)">
        <path id="Path_162" data-name="Path 162" d="M5.356,67l-.776-6.354a1.155,1.155,0,0,1,1.334-1.279l1.514.248a2.153,2.153,0,0,1,1.661,1.361l1.718,4.519-1.131.43L7.957,61.4a.94.94,0,0,0-.726-.6l-1.442-.237.767,6.28Z" transform="translate(-3.905 -59.349)" fill="rgba(255,217,221,0.41)"/>
        <path id="Path_163" data-name="Path 163" d="M36.682,90.125c-2.122-7.114-24.216-4.2-31.591-2.389C.324,88.9-.084,89.7.012,90.349c.007.454.2,1.264,5.221,2.49a85.647,85.647,0,0,0,10.18,1.743l-1.121,5.369a.915.915,0,0,0,.209.8,1.461,1.461,0,0,0,1.105.452q.056,0,.111,0l2.495-.156A3.049,3.049,0,0,0,20.575,99.9l.592-.874h2.44a1.145,1.145,0,0,0,1.144-1.144V96.558a1.145,1.145,0,0,0-1.137-1.143l.212-.313c4.317-.033,11.39-.7,12.843-4.592l.071-.19Zm-1.549-.432H33.147a4.141,4.141,0,0,1-.925-1.845A5.882,5.882,0,0,1,35.133,89.693ZM23.542,97.82H21.986l.81-1.2h.746Zm1.114-3.942.774-1.143-1-.678-4.853,7.168a1.931,1.931,0,0,1-1.437.606l-2.495.156a.51.51,0,0,1-.121-.005l1.617-7.739L15.954,92l-.292,1.4c-7.4-.826-13.161-2.332-14.318-3.124,2.058-1.385,18.8-4.779,28.537-3.016.336.061.685.134,1.037.218a5.487,5.487,0,0,0,1.555,3.259l.176.169h2.4C33.626,92.66,29.9,93.738,24.655,93.877Z" transform="translate(0 -81.759)" fill="rgba(255,217,221,0.41)"/>
        <path id="Path_164" data-name="Path 164" d="M180.923,103.343a1.792,1.792,0,1,1,1.792-1.792A1.794,1.794,0,0,1,180.923,103.343Zm0-2.374a.582.582,0,1,0,.582.582A.583.583,0,0,0,180.923,100.969Z" transform="translate(-153.022 -93.869)" fill="rgba(255,217,221,0.41)"/>
        <path id="Path_165" data-name="Path 165" d="M150.719,103.343a1.792,1.792,0,1,1,1.792-1.792A1.794,1.794,0,0,1,150.719,103.343Zm0-2.374a.582.582,0,1,0,.582.582A.583.583,0,0,0,150.719,100.969Z" transform="translate(-127.221 -93.869)" fill="rgba(255,217,221,0.41)"/>
        <path id="Path_166" data-name="Path 166" d="M120.515,103.343a1.792,1.792,0,1,1,1.792-1.792A1.794,1.794,0,0,1,120.515,103.343Zm0-2.374a.582.582,0,1,0,.582.582A.583.583,0,0,0,120.515,100.969Z" transform="translate(-101.419 -93.869)" fill="rgba(255,217,221,0.41)"/>
      </g>
    </g>
    <g id="scooter-1050" transform="translate(226.658 833.744) rotate(-11)">
      <g id="Group_107" data-name="Group 107" transform="translate(-126.037 -79.479)">
        <path id="Path_159" data-name="Path 159" d="M40.353,60.176a.664.664,0,0,0-.2-.478,8.8,8.8,0,0,0-7.695-2.419,25.855,25.855,0,0,0-2.931-6.317l.688-.2a.665.665,0,0,0,.476-.638V47.233a.665.665,0,0,0-.619-.664,3.02,3.02,0,0,0-2.939,1.249c-.33-.365-.669-.721-1.02-1.062a.664.664,0,0,0-.876-.045l-.915.722a6.784,6.784,0,0,0-5.685-.058.665.665,0,1,0,.447,1.253c1.992-.71,3.571-.675,4.826.1,3.425,5.243,3.9,9.488,1.282,11.655-2.169,1.8-5.676,1.543-7.133.132-1.12-1.086-.927-2.726.545-4.619,0,0,0-.009.008-.013a.652.652,0,0,0,.083-.145c0-.006,0-.013.006-.019a.654.654,0,0,0,.035-.139c0-.016,0-.031,0-.047s0-.029,0-.044a4.608,4.608,0,0,0-4.6-4.6H9.354A4.607,4.607,0,0,0,4.77,55.11C1.651,56.352.6,60.272.007,64.032a.665.665,0,0,0,.657.769H4.517a5.926,5.926,0,1,0,11.676,1.94H28.021a5.926,5.926,0,1,0,10.436-4.459l1.691-1.63A.664.664,0,0,0,40.353,60.176ZM29.36,47.9v1.72l-.623.185c-.22-.3-.441-.6-.674-.893A1.42,1.42,0,0,1,29.36,47.9ZM9.354,52.214H14.14a3.279,3.279,0,0,1,3.2,2.608H6.15A3.278,3.278,0,0,1,9.354,52.214Zm-3.5,3.938H16.821c-1.673,2.866-.385,4.642.312,5.317,2.094,2.029,6.423,2,8.907-.063,1.492-1.237,4.345-4.954-.77-13.027l.326-.258a23.707,23.707,0,0,1,5.565,9.467,8.938,8.938,0,0,0-6.144,7.823H16.193a5.822,5.822,0,0,0-.1-.61h.351a.666.666,0,0,0,.665-.664,6.516,6.516,0,0,0-1.863-4.663,6.615,6.615,0,0,0-4.735-1.886,8.91,8.91,0,0,0-8.16,5.883h-.9C2.064,59.961,3.093,56.782,5.859,56.152Zm4.653,2.767a5.3,5.3,0,0,1,3.794,1.5,5.1,5.1,0,0,1,1.438,3.057H3.779A7.659,7.659,0,0,1,10.512,58.919Zm1.253,7.158A1.459,1.459,0,1,1,9.606,64.8h1.407A1.455,1.455,0,0,1,11.765,66.077Zm-1.459,4.6A4.6,4.6,0,0,1,5.889,64.8H7.833a2.789,2.789,0,1,0,4.948,0h1.942a4.6,4.6,0,0,1-4.417,5.872Zm23.6,0a4.6,4.6,0,1,1,4.6-4.6A4.6,4.6,0,0,1,33.909,70.674Zm3.583-9.308a5.913,5.913,0,0,0-9.47,4.046H26.347a7.593,7.593,0,0,1,12.364-5.221Z" transform="translate(0.001 -46.557)" fill="rgba(255,217,221,0.35)"/>
        <path id="Path_160" data-name="Path 160" d="M197.184,151.064a2.79,2.79,0,1,0,2.79,2.789A2.792,2.792,0,0,0,197.184,151.064Zm0,4.248a1.459,1.459,0,1,1,1.459-1.459A1.461,1.461,0,0,1,197.184,155.312Z" transform="translate(-163.275 -134.334)" fill="rgba(255,217,221,0.35)"/>
      </g>
    </g>
  </g>
</svg>
