<svg xmlns="http://www.w3.org/2000/svg" width="310.373" height="329.14" viewBox="0 0 310.373 329.14">
  <g id="conveyance-backround" transform="matrix(-0.695, -0.719, 0.719, -0.695, 196.003, 328.494)">
    <g id="Group_287" data-name="Group 287">
      <path id="Path_709" data-name="Path 709" d="M5010.556,600.635c-55.5,47.765-94.99,11.947-94.99,11.947l-21.594,103.971-46.618-10.877s-2.9-16.595-21.577-20.953a30.541,30.541,0,0,0-29.7,8.988s-35.157-3.624-84.38-20.6" transform="translate(-4709.669 -557.128)" fill="none" stroke="rgba(2,167,172,0.24)" stroke-width="2"/>
      <g id="Group_286" data-name="Group 286">
        <path id="Path_708" data-name="Path 708" d="M5050.993,584.221s-97.062,42.616-163.541,51.034c-68.638,14.971-117.267,15.694-117.267,15.694" transform="translate(-4770.186 -584.221)" fill="none" stroke="rgba(2,167,172,0.24)" stroke-width="2"/>
        <g id="car-1057" transform="translate(135.161 74.003) rotate(169)">
          <g id="Group_99" data-name="Group 99" transform="translate(0 0)">
            <path id="Path_136" data-name="Path 136" d="M2.253,1.942H.971A.971.971,0,0,1,.971,0H2.253a.971.971,0,0,1,0,1.942Z" transform="translate(24.412 8.816)" fill="rgba(2,167,172,0.2)"/>
            <path id="Path_137" data-name="Path 137" d="M58.873,12.09C58.272,8,50.837,5.806,44.022,5.779,33.906-1.62,21.375-1.916,6.77,4.9l-4.4.734A2.826,2.826,0,0,0,0,8.432V14.99a2.836,2.836,0,0,0,.688,1.851l1.528,1.772a2.832,2.832,0,0,0,2.147.984H5.791a6.422,6.422,0,0,0,12.62,0H42.188a6.423,6.423,0,0,0,12.621,0h1.239a2.839,2.839,0,0,0,2.836-2.836v-4.53Zm-2.792-1.165h-.866l-.561-.986A7.021,7.021,0,0,1,56.081,10.926ZM40.512,5.78H20.546L18.978,2.7C27.064.968,34.186,1.993,40.512,5.78ZM12.1,22.882A4.485,4.485,0,1,1,16.587,18.4,4.49,4.49,0,0,1,12.1,22.882Zm36.4,0A4.485,4.485,0,1,1,52.984,18.4,4.49,4.49,0,0,1,48.5,22.882Zm7.549-5.227H54.879a6.422,6.422,0,0,0-12.759,0H18.482a6.422,6.422,0,0,0-12.759,0H4.363a.894.894,0,0,1-.677-.31L2.158,15.573a.892.892,0,0,1-.217-.582V10.758H3A.971.971,0,1,0,3,8.817H1.941V8.432a.891.891,0,0,1,.747-.882l4.664-.777.121-.057a56.528,56.528,0,0,1,9.565-3.544L19.08,7.179l3.706,7.608a.971.971,0,1,0,1.746-.851L21.5,7.721H43.38l0,0,.326,0a28.267,28.267,0,0,1,8.048,1.057l2.05,3.6a.972.972,0,0,0,.843.49h2.291v3.894A.894.894,0,0,1,56.048,17.656Z" fill="rgba(2,167,172,0.2)"/>
            <path id="Path_138" data-name="Path 138" d="M3.087,0A3.087,3.087,0,1,0,6.174,3.087,3.09,3.09,0,0,0,3.087,0Zm0,4.232A1.145,1.145,0,1,1,4.232,3.087,1.146,1.146,0,0,1,3.087,4.232Z" transform="translate(45.412 15.311)" fill="rgba(2,167,172,0.2)"/>
            <path id="Path_139" data-name="Path 139" d="M3.087,0A3.087,3.087,0,1,0,6.174,3.087,3.09,3.09,0,0,0,3.087,0Zm0,4.232A1.145,1.145,0,1,1,4.232,3.087,1.147,1.147,0,0,1,3.087,4.232Z" transform="translate(9.015 15.311)" fill="rgba(2,167,172,0.2)"/>
          </g>
        </g>
      </g>
    </g>
    <g id="Rectangle_343" data-name="Rectangle 343" transform="matrix(-0.978, -0.208, 0.208, -0.978, 177.397, 149.717)" fill="none" stroke="rgba(2,167,172,0.24)" stroke-width="2">
      <rect width="19" height="19" stroke="none"/>
      <rect x="1" y="1" width="17" height="17" fill="none"/>
    </g>
    <g id="Rectangle_344" data-name="Rectangle 344" transform="matrix(-0.978, -0.208, 0.208, -0.978, 154.862, 144.717)" fill="none" stroke="rgba(2,167,172,0.24)" stroke-width="2">
      <rect width="10" height="10" stroke="none"/>
      <rect x="1" y="1" width="8" height="8" fill="none"/>
    </g>
    <g id="Ellipse_106" data-name="Ellipse 106" transform="translate(230.58 41.949)" fill="none" stroke="rgba(2,167,172,0.24)" stroke-width="2">
      <circle cx="7.5" cy="7.5" r="7.5" stroke="none"/>
      <circle cx="7.5" cy="7.5" r="6.5" fill="none"/>
    </g>
    <g id="Ellipse_107" data-name="Ellipse 107" transform="translate(221.58 33.949)" fill="none" stroke="rgba(2,167,172,0.24)" stroke-width="2">
      <circle cx="5" cy="5" r="5" stroke="none"/>
      <circle cx="5" cy="5" r="4" fill="none"/>
    </g>
    <g id="Ellipse_108" data-name="Ellipse 108" transform="translate(27.58 105.949)" fill="none" stroke="rgba(2,167,172,0.24)" stroke-width="2">
      <circle cx="7" cy="7" r="7" stroke="none"/>
      <circle cx="7" cy="7" r="6" fill="none"/>
    </g>
    <g id="Ellipse_109" data-name="Ellipse 109" transform="translate(10.58 101.949)" fill="none" stroke="rgba(2,167,172,0.24)" stroke-width="2">
      <circle cx="7" cy="7" r="7" stroke="none"/>
      <circle cx="7" cy="7" r="6" fill="none"/>
    </g>
    <g id="Path_711" data-name="Path 711" transform="translate(103.58 133.949)" fill="none">
      <path d="M8.5,17A8.5,8.5,0,1,1,17,8.5,8.5,8.5,0,0,1,8.5,17Z" stroke="none"/>
      <path d="M 8.5 15 C 12.08411026000977 15 15 12.08411026000977 15 8.5 C 15 4.915890216827393 12.08411026000977 2 8.5 2 C 4.915890216827393 2 2 4.915890216827393 2 8.5 C 2 12.08411026000977 4.915890216827393 15 8.5 15 M 8.5 17 C 3.805579900741577 17 0 13.19441986083984 0 8.5 C 0 3.805579900741577 3.805579900741577 0 8.5 0 C 13.19441986083984 0 17 3.805579900741577 17 8.5 C 17 13.19441986083984 13.19441986083984 17 8.5 17 Z" stroke="none" fill="rgba(2,167,172,0.24)"/>
    </g>
    <line id="Line_76" data-name="Line 76" x1="9" y2="9" transform="translate(103.08 142.449)" fill="none" stroke="rgba(2,167,172,0.24)" stroke-linecap="round" stroke-width="2"/>
  </g>
</svg>
