<svg xmlns="http://www.w3.org/2000/svg" width="24" height="24" viewBox="0 0 24 24">
  <g id="random-icon" transform="translate(-323 -377)">
    <rect id="Rectangle_381" data-name="Rectangle 381" width="24" height="24" transform="translate(323 377)" opacity="0"/>
    <line id="Line_42" data-name="Line 42" x2="3.637" transform="translate(341.113 385.434)" fill="none" stroke="#aeaeae" stroke-linecap="round" stroke-width="2"/>
    <line id="Line_43" data-name="Line 43" x1="0.727" y2="3.637" transform="translate(344.023 385.434)" fill="none" stroke="#aeaeae" stroke-linecap="round" stroke-width="2"/>
    <line id="Line_44" data-name="Line 44" x1="3.637" transform="translate(325 392.641) rotate(-79)" fill="none" stroke="#aeaeae" stroke-linecap="round" stroke-width="2"/>
    <line id="Line_45" data-name="Line 45" x2="0.727" y2="3.637" transform="translate(325 392.641) rotate(-79)" fill="none" stroke="#aeaeae" stroke-linecap="round" stroke-width="2"/>
    <path id="Path_178" data-name="Path 178" d="M-2.718,10.172c.946-1.006,1.855-2.546,4.682-2.517s5.03,5.071,7.987,5.071,3.522-1.128,5.2-2.512" transform="translate(329.487 375.345)" fill="none" stroke="#aeaeae" stroke-linecap="round" stroke-width="2"/>
    <path id="Path_179" data-name="Path 179" d="M-2.718,10.172c.946-1.006,1.855-2.546,4.682-2.517s5.03,5.071,7.987,5.071,3.522-1.128,5.2-2.512" transform="translate(329.487 381.416)" fill="none" stroke="#aeaeae" stroke-linecap="round" stroke-width="2"/>
  </g>
</svg>
