<svg xmlns="http://www.w3.org/2000/svg" width="24" height="24" viewBox="0 0 24 24">
  <g id="settings-icon" transform="translate(-301 -240)">
    <rect id="Rectangle_387" data-name="Rectangle 387" width="24" height="24" transform="translate(301 240)" opacity="0"/>
    <g id="coolicon" transform="translate(303 241)" fill="none">
      <path d="M0,16.5V5.5L9.5,0,19,5.5v11L9.5,22Z" stroke="none"/>
      <path d="M 9.5 19.68900489807129 L 17 15.34689998626709 L 17 6.653101921081543 L 9.5 2.310996770858765 L 2 6.653101921081543 L 2 15.34689998626709 L 9.5 19.68900489807129 M 9.5 22 L 0 16.5 L 0 5.500000953674316 L 9.5 9.5367431640625e-07 L 19 5.500000953674316 L 19 16.5 L 9.5 22 Z" stroke="none" fill="#707070"/>
    </g>
    <g id="coolicon-2" data-name="coolicon" transform="translate(303.501 241)" fill="none">
      <path d="M7.538,10.609A2,2,0,1,0,9.5,9,2,2,0,0,0,7.538,10.609Z" stroke="none"/>
      <path d="M 9.504545211791992 8.999988555908203 C 9.502906799316406 8.99998950958252 9.501214981079102 8.999997138977051 9.499581336975098 8.999994277954102 C 8.545559883117676 8.999958992004395 7.724392890930176 9.673758506774902 7.53807544708252 10.60943412780762 C 7.35174560546875 11.5452241897583 7.852405548095703 12.48231410980225 8.73387622833252 12.84761428833008 C 9.615338325500488 13.21292304992676 10.6320972442627 12.90468406677246 11.16232585906982 12.11141395568848 C 11.69256591796875 11.31815433502197 11.58859634399414 10.26079368591309 10.91400623321533 9.586004257202148 C 10.54083919525146 9.210853576660156 10.03354930877686 8.999988555908203 9.504545211791992 8.999988555908203 M 9.504546165466309 6.999983787536621 C 10.55826568603516 6.999983787536621 11.58881568908691 7.428454399108887 12.331955909729 8.175534248352051 C 13.6732759475708 9.517244338989258 13.88213539123535 11.64142417907715 12.82506561279297 13.22284412384033 C 12.08119583129883 14.33576393127441 10.83773612976074 15.00020408630371 9.498846054077148 15.00020408630371 C 8.971475601196289 15.00020408630371 8.456485748291016 14.8975944519043 7.968185424804688 14.69523429870605 C 6.210935592651367 13.9669942855835 5.20512580871582 12.0844144821167 5.57658576965332 10.21887397766113 C 5.947985649108887 8.353713989257812 7.597805976867676 6.999994277954102 9.499505996704102 6.999994277954102 L 9.504546165466309 6.999983787536621 Z" stroke="none" fill="#707070"/>
    </g>
  </g>
</svg>
